<mxfile><diagram id="qDGpCQ4_u4ZPq7MwkL5W" name="Page-1"><mxGraphModel dx="883" dy="609" grid="1" gridSize="10" guides="1" tooltips="1" connect="1" arrows="1" fold="1" page="1" pageScale="1" pageWidth="827" pageHeight="1169" math="0" shadow="0"><root><mxCell id="0"/><mxCell id="1" parent="0"/><mxCell id="2" value="Actor" style="shape=umlActor;verticalLabelPosition=bottom;verticalAlign=top;html=1;outlineConnect=0;" vertex="1" parent="1"><mxGeometry x="90" y="270" width="30" height="60" as="geometry"/></mxCell><mxCell id="3" value="(re)Start Game" style="ellipse;whiteSpace=wrap;html=1;" vertex="1" parent="1"><mxGeometry x="220" y="140" width="120" height="80" as="geometry"/></mxCell><mxCell id="4" value="" style="endArrow=none;html=1;" edge="1" parent="1" target="3"><mxGeometry width="50" height="50" relative="1" as="geometry"><mxPoint x="160" y="260" as="sourcePoint"/><mxPoint x="210" y="210" as="targetPoint"/><Array as="points"/></mxGeometry></mxCell><mxCell id="5" value="" style="endArrow=none;html=1;" edge="1" parent="1" target="6"><mxGeometry width="50" height="50" relative="1" as="geometry"><mxPoint x="150" y="360" as="sourcePoint"/><mxPoint x="230" y="420" as="targetPoint"/></mxGeometry></mxCell><mxCell id="6" value="Compare Number" style="ellipse;whiteSpace=wrap;html=1;" vertex="1" parent="1"><mxGeometry x="240" y="380" width="120" height="80" as="geometry"/></mxCell><mxCell id="10" value="Show Winner" style="ellipse;whiteSpace=wrap;html=1;" vertex="1" parent="1"><mxGeometry x="440" y="380" width="120" height="80" as="geometry"/></mxCell><mxCell id="12" value="" style="endArrow=classic;html=1;" edge="1" parent="1"><mxGeometry width="50" height="50" relative="1" as="geometry"><mxPoint x="440" y="419.5" as="sourcePoint"/><mxPoint x="360" y="419.5" as="targetPoint"/></mxGeometry></mxCell><mxCell id="13" value="Initialize Deck" style="ellipse;whiteSpace=wrap;html=1;" vertex="1" parent="1"><mxGeometry x="420" y="140" width="120" height="80" as="geometry"/></mxCell><mxCell id="14" value="" style="endArrow=classic;html=1;" edge="1" parent="1"><mxGeometry width="50" height="50" relative="1" as="geometry"><mxPoint x="420" y="179.5" as="sourcePoint"/><mxPoint x="340" y="179.5" as="targetPoint"/></mxGeometry></mxCell><mxCell id="15" value="Show Total Winner" style="ellipse;whiteSpace=wrap;html=1;" vertex="1" parent="1"><mxGeometry x="440" y="250" width="120" height="80" as="geometry"/></mxCell><mxCell id="16" value="" style="endArrow=classic;html=1;" edge="1" parent="1"><mxGeometry width="50" height="50" relative="1" as="geometry"><mxPoint x="500" y="340" as="sourcePoint"/><mxPoint x="499.5" y="380" as="targetPoint"/></mxGeometry></mxCell></root></mxGraphModel></diagram></mxfile>